<svg id="eda902e8-d609-47b3-aa19-3d032979d3e0" data-name="Capa 1" xmlns="http://www.w3.org/2000/svg" viewBox="0 0 501.8 425.9"><title>pervolare-logo-vertical</title><path d="M5.1,63.3s102.1,66,161.7,246.9c0,0,10.7,14.9,21.3,0S311.6,71.8,496.7,14.4c0,0-201.1,28.7-320.3,216C176.4,230.4,136,106.9,5.1,63.3Z" style="fill:#03a9db"/><path d="M115.8,31.4s51,14.9,68.1,102.1c0,0,36.1-78.7,174.5-127.7C358.4,5.8,252-9.1,115.8,31.4Z" style="fill:#03a9db"/><path d="M86,37.8s65.9,12.7,97.9,95.7c0,0-10.7-80.8-68.1-102.1C115.8,31.4,96.6,33.5,86,37.8Z" style="fill:#f35796"/><path d="M56.2,48.4s83,0,127.7,85.1c0,0-19.2-74.5-97.9-95.7C86,37.8,68.9,42,56.2,48.4Z" style="fill:#eb7d4a"/><path d="M17.2,345.3H42.8c16.4,0,29.6,5.9,29.6,24S59,394.6,43.2,394.6H34v25.3H17.2Zm25,35.9c9.3,0,13.7-4.1,13.7-11.9s-5-10.6-14.1-10.6H34v22.5Z" style="fill:#03a9db"/><path d="M78.2,391.5c0-18.4,13.2-29.7,26.8-29.7,16.2,0,24.2,11.7,24.2,27.2a39.1,39.1,0,0,1-.7,7.4h-34c1.5,8.3,7.2,12,14.8,12a23.7,23.7,0,0,0,12.2-3.7l5.6,10.2a37.1,37.1,0,0,1-20.1,6.4C90.8,421.3,78.2,410.3,78.2,391.5Zm36.6-6.2c0-6.2-2.7-10.7-9.4-10.7s-9.9,3.5-11.1,10.7Z" style="fill:#03a9db"/><path d="M140.8,363.1h13.7l1.2,9.9h.4c4.2-7.5,10.4-11.2,16.2-11.2a15.9,15.9,0,0,1,6.7,1.1l-2.8,14.5a22.4,22.4,0,0,0-6.1-.9c-4.3,0-9.5,2.8-12.5,10.5v32.9H140.8Z" style="fill:#03a9db"/><path d="M181.1,363.1H198l7.4,26.8c1.4,5.7,2.9,11.5,4.4,17.5h.4c1.5-6,3-11.8,4.4-17.5l7.4-26.8h16.1l-18.5,56.8H200.2Z" style="fill:#03a9db"/><path d="M242.7,391.5c0-18.8,13.3-29.7,27.7-29.7S298,372.7,298,391.5s-13.2,29.8-27.6,29.8S242.7,410.4,242.7,391.5Zm38.1,0c0-9.8-3.5-16.2-10.4-16.2S260,381.7,260,391.5s3.4,16.2,10.4,16.2S280.8,401.4,280.8,391.5Z" style="fill:#03a9db"/><path d="M308.6,422.4V339.7h16.8v83.1Z" style="fill:#03a9db"/><path d="M329.7,404.1c0-11.9,9.5-18.4,32-20.8-.3-4.9-2.8-8.2-9-8.2-4.7,0-9.5,2-15,5.2l-6-11.1c7.2-4.4,15.3-7.4,24.3-7.4,14.5,0,22.5,8.2,22.5,25.6v32.5H364.8l-1.2-5.8h-.4c-4.8,4.2-10.2,7.2-16.6,7.2C336.3,421.3,329.7,413.7,329.7,404.1Zm32-.7v-9.9c-12,1.6-15.9,5-15.9,9.3s2.5,5.5,6.5,5.5S358.7,406.4,361.7,403.4Z" style="fill:#03a9db"/><path d="M392.6,363.1h13.7l1.3,9.9h.4c4.1-7.5,10.3-11.2,16.1-11.2a16.8,16.8,0,0,1,6.8,1.1l-2.8,14.5a23.1,23.1,0,0,0-6.2-.9c-4.2,0-9.4,2.8-12.5,10.5v32.9H392.6Z" style="fill:#03a9db"/><path d="M433.7,391.5c0-18.4,13.2-29.7,26.8-29.7,16.2,0,24.2,11.7,24.2,27.2a39.1,39.1,0,0,1-.7,7.4H450c1.5,8.3,7.2,12,14.7,12a23.8,23.8,0,0,0,12.3-3.7l5.6,10.2a37.1,37.1,0,0,1-20.2,6.4C446.3,421.3,433.7,410.3,433.7,391.5Zm36.6-6.2c0-6.2-2.7-10.7-9.4-10.7s-9.9,3.5-11.1,10.7Z" style="fill:#03a9db"/></svg>