<svg id="b28f63a9-ada2-46d5-953b-ec01fa6321a1" data-name="Capa 1" xmlns="http://www.w3.org/2000/svg" viewBox="0 0 501.8 322.8"><title>pervolare-logotipo</title><path d="M5.1,64.7s102.1,66,161.7,246.9c0,0,10.7,14.9,21.3,0S311.6,73.3,496.7,15.8c0,0-201.1,28.7-320.3,216C176.4,231.8,136,108.4,5.1,64.7Z" style="fill:#03a9db"/><path d="M115.8,32.8s51,14.9,68.1,102.2c0,0,36.1-78.8,174.5-127.7C358.4,7.3,252-7.6,115.8,32.8Z" style="fill:#03a9db"/><path d="M86,39.2S151.9,52,183.9,135c0,0-10.7-80.9-68.1-102.2C115.8,32.8,96.6,34.9,86,39.2Z" style="fill:#f35796"/><path d="M56.2,49.8s83,0,127.7,85.2c0,0-19.2-74.5-97.9-95.8C86,39.2,68.9,43.5,56.2,49.8Z" style="fill:#eb7d4a"/></svg>