<svg id="fbb1871e-71e3-4ae0-995d-910b2bfc4459" data-name="Capa 1" xmlns="http://www.w3.org/2000/svg" viewBox="0 0 633.4 125.1"><title>pervolare-logo-horizontal</title><path d="M4,25.6s39.5,25.5,62.5,95.5c0,0,4.1,5.7,8.3,0S122.5,28.9,194,6.7c0,0-77.7,11.1-123.8,83.5C70.2,90.2,54.6,42.5,4,25.6Z" style="fill:#03a9db"/><path d="M46.8,13.3S66.5,19,73.1,52.8c0,0,14-30.5,67.5-49.4C140.6,3.4,99.4-2.3,46.8,13.3Z" style="fill:#03a9db"/><path d="M35.3,15.8s25.5,4.9,37.8,37c0,0-4.1-31.3-26.3-39.5C46.8,13.3,39.4,14.1,35.3,15.8Z" style="fill:#f35796"/><path d="M23.7,19.9s32.1,0,49.4,32.9c0,0-7.4-28.8-37.8-37A64.8,64.8,0,0,0,23.7,19.9Z" style="fill:#eb7d4a"/><path d="M162.4,46.2H188c16.4,0,29.7,5.8,29.7,24s-13.4,25.2-29.2,25.2h-9.2v25.3H162.4Zm25.1,35.9c9.2,0,13.6-4.2,13.6-11.9s-5-10.6-14.1-10.6h-7.7V82.1Z" style="fill:#03a9db"/><path d="M223.5,92.4c0-18.4,13.1-29.8,26.8-29.8,16.1,0,24.1,11.8,24.1,27.3a40.1,40.1,0,0,1-.7,7.4H239.8c1.5,8.2,7.1,12,14.7,12,4.3,0,8.1-1.3,12.3-3.7l5.5,10.1a37.1,37.1,0,0,1-20.1,6.4C236,122.1,223.5,111.2,223.5,92.4Zm36.6-6.2c0-6.3-2.8-10.8-9.5-10.8s-9.9,3.6-11,10.8Z" style="fill:#03a9db"/><path d="M286,64h13.8l1.2,9.9h.4c4.1-7.6,10.3-11.3,16.1-11.3a14.8,14.8,0,0,1,6.8,1.2l-2.8,14.5a23,23,0,0,0-6.1-.9c-4.3,0-9.5,2.7-12.5,10.4v32.9H286Z" style="fill:#03a9db"/><path d="M326.3,64h16.9l7.4,26.8c1.5,5.6,3,11.5,4.4,17.4h.5c1.4-5.9,2.9-11.8,4.4-17.4L367.3,64h16.1l-18.5,56.7H345.5Z" style="fill:#03a9db"/><path d="M388,92.4c0-18.9,13.3-29.8,27.6-29.8s27.7,10.9,27.7,29.8-13.3,29.7-27.7,29.7S388,111.2,388,92.4Zm38,0c0-9.8-3.4-16.2-10.4-16.2s-10.4,6.4-10.4,16.2,3.5,16.1,10.4,16.1S426,102.2,426,92.4Z" style="fill:#03a9db"/><path d="M453.9,123.2V40.6h16.8v83Z" style="fill:#03a9db"/><path d="M475,105c0-12,9.5-18.4,31.9-20.8-.3-5-2.8-8.2-8.9-8.2s-9.6,2-15.1,5.1l-5.9-11c7.2-4.4,15.3-7.5,24.2-7.5,14.5,0,22.5,8.3,22.5,25.7v32.4H510l-1.2-5.8h-.4c-4.8,4.2-10.1,7.2-16.5,7.2C481.5,122.1,475,114.6,475,105Zm31.9-.7v-10c-11.9,1.7-15.8,5.1-15.8,9.4s2.5,5.4,6.5,5.4S503.9,107.2,506.9,104.3Z" style="fill:#03a9db"/><path d="M537.9,64h13.7l1.2,9.9h.4c4.2-7.6,10.4-11.3,16.1-11.3,3.3,0,5.2.4,6.8,1.2l-2.8,14.5a23,23,0,0,0-6.1-.9c-4.3,0-9.5,2.7-12.5,10.4v32.9H537.9Z" style="fill:#03a9db"/><path d="M579,92.4c0-18.4,13.1-29.8,26.7-29.8,16.2,0,24.2,11.8,24.2,27.3a40.1,40.1,0,0,1-.7,7.4H595.3c1.5,8.2,7.1,12,14.7,12a23.4,23.4,0,0,0,12.2-3.7l5.6,10.1a37.1,37.1,0,0,1-20.1,6.4C591.5,122.1,579,111.2,579,92.4Zm36.5-6.2c0-6.3-2.7-10.8-9.4-10.8s-9.9,3.6-11,10.8Z" style="fill:#03a9db"/></svg>