<svg id="visual" viewBox="0 0 900 600" width="900" height="600" xmlns="http://www.w3.org/2000/svg" xmlns:xlink="http://www.w3.org/1999/xlink" version="1.1"><rect x="0" y="0" width="900" height="600" fill="#001220"></rect><path d="M0 456L21.5 447.3C43 438.7 86 421.3 128.8 408.8C171.7 396.3 214.3 388.7 257.2 396.7C300 404.7 343 428.3 385.8 437.7C428.7 447 471.3 442 514.2 438.8C557 435.7 600 434.3 642.8 427.3C685.7 420.3 728.3 407.7 771.2 408.3C814 409 857 423 878.5 430L900 437L900 601L878.5 601C857 601 814 601 771.2 601C728.3 601 685.7 601 642.8 601C600 601 557 601 514.2 601C471.3 601 428.7 601 385.8 601C343 601 300 601 257.2 601C214.3 601 171.7 601 128.8 601C86 601 43 601 21.5 601L0 601Z" fill="#5be7a9"></path><path d="M0 470L21.5 466.2C43 462.3 86 454.7 128.8 458.7C171.7 462.7 214.3 478.3 257.2 485.7C300 493 343 492 385.8 490.5C428.7 489 471.3 487 514.2 476C557 465 600 445 642.8 441C685.7 437 728.3 449 771.2 461.2C814 473.3 857 485.7 878.5 491.8L900 498L900 601L878.5 601C857 601 814 601 771.2 601C728.3 601 685.7 601 642.8 601C600 601 557 601 514.2 601C471.3 601 428.7 601 385.8 601C343 601 300 601 257.2 601C214.3 601 171.7 601 128.8 601C86 601 43 601 21.5 601L0 601Z" fill="#00ccd3"></path><path d="M0 504L21.5 511.7C43 519.3 86 534.7 128.8 540.2C171.7 545.7 214.3 541.3 257.2 541C300 540.7 343 544.3 385.8 545C428.7 545.7 471.3 543.3 514.2 543.5C557 543.7 600 546.3 642.8 544.8C685.7 543.3 728.3 537.7 771.2 534.3C814 531 857 530 878.5 529.5L900 529L900 601L878.5 601C857 601 814 601 771.2 601C728.3 601 685.7 601 642.8 601C600 601 557 601 514.2 601C471.3 601 428.7 601 385.8 601C343 601 300 601 257.2 601C214.3 601 171.7 601 128.8 601C86 601 43 601 21.5 601L0 601Z" fill="#03a9db"></path></svg>